<svg width="671" height="770" viewBox="0 0 671 770" fill="none" xmlns="http://www.w3.org/2000/svg">
<path d="M388.549 412.287H281.702C209.947 412.287 151.525 353.861 151.525 282.019C151.525 210.177 209.91 151.788 281.702 151.788H293.387V77.0604H351.66V151.788H388.549C430.381 151.788 464.311 117.835 464.311 75.9736C464.311 34.1124 430.381 0.158737 388.549 0.158737H281.702C126.358 0.158737 0 126.604 0 282.057C0 437.509 126.358 563.954 281.702 563.954H388.549C430.381 563.954 464.311 530.001 464.311 488.14C464.311 446.278 430.418 412.325 388.549 412.325V412.287Z" fill="url(#paint0_linear_203_1117)" fill-opacity="0.44"/>
<path d="M389.298 206.242H282.452C240.62 206.242 206.689 240.195 206.689 282.057C206.689 323.918 240.62 357.871 282.452 357.871H389.298C461.053 357.871 519.476 416.297 519.476 488.102C519.476 559.907 461.09 618.37 389.298 618.37H351.698V693.136H293.425V618.37H282.452C240.62 618.37 206.689 652.324 206.689 694.185C206.689 736.046 240.62 770 282.452 770H389.298C544.642 770 671 643.554 671 488.102C671 332.65 544.642 206.204 389.298 206.204V206.242Z" fill="url(#paint1_linear_203_1117)" fill-opacity="0.44"/>
<defs>
<linearGradient id="paint0_linear_203_1117" x1="232.155" y1="0.158737" x2="229.86" y2="615.678" gradientUnits="userSpaceOnUse">
<stop stop-color="#DE5322"/>
<stop offset="1" stop-color="#FA4100" stop-opacity="0"/>
</linearGradient>
<linearGradient id="paint1_linear_203_1117" x1="438.845" y1="206.204" x2="436.549" y2="821.723" gradientUnits="userSpaceOnUse">
<stop stop-color="#DE5322"/>
<stop offset="1" stop-color="#FA4100" stop-opacity="0"/>
</linearGradient>
</defs>
</svg>
