<svg width="999" height="1146" viewBox="0 0 999 1146" fill="none" xmlns="http://www.w3.org/2000/svg">
<path d="M578.401 613.502H419.347C312.531 613.502 225.562 526.528 225.562 419.583C225.562 312.637 312.476 225.719 419.347 225.719H436.741V114.477H523.487V225.719H578.401C640.673 225.719 691.182 175.175 691.182 112.859C691.182 50.5441 640.673 0 578.401 0H419.347C188.099 0 0 188.229 0 419.638C0 651.048 188.099 839.277 419.347 839.277H578.401C640.673 839.277 691.182 788.733 691.182 726.417C691.182 664.102 640.729 613.558 578.401 613.558V613.502Z" fill="url(#paint0_linear_217_325)" fill-opacity="0.19"/>
<path d="M579.516 306.779H420.463C358.191 306.779 307.682 357.323 307.682 419.638C307.682 481.954 358.191 532.498 420.463 532.498H579.516C686.332 532.498 773.301 619.471 773.301 726.362C773.301 833.252 686.388 920.281 579.516 920.281H523.544V1031.58H436.797V920.281H420.463C358.191 920.281 307.682 970.825 307.682 1033.14C307.682 1095.46 358.191 1146 420.463 1146H579.516C810.765 1146 998.863 957.771 998.863 726.362C998.863 494.952 810.765 306.723 579.516 306.723V306.779Z" fill="url(#paint1_linear_217_325)" fill-opacity="0.19"/>
<defs>
<linearGradient id="paint0_linear_217_325" x1="345.591" y1="8.38672e-08" x2="342.174" y2="916.273" gradientUnits="userSpaceOnUse">
<stop stop-color="#DE5322"/>
<stop offset="1" stop-color="#FA4100" stop-opacity="0"/>
</linearGradient>
<linearGradient id="paint1_linear_217_325" x1="653.273" y1="306.723" x2="649.856" y2="1223" gradientUnits="userSpaceOnUse">
<stop stop-color="#DE5322"/>
<stop offset="1" stop-color="#FA4100" stop-opacity="0"/>
</linearGradient>
</defs>
</svg>
