<svg width="30" height="26" viewBox="0 0 30 26" fill="none" xmlns="http://www.w3.org/2000/svg">
<path d="M9.14667 7.89474L7 10.1053L14.6667 18L30 2.21053L27.8533 0L14.6667 13.5789L9.14667 7.89474Z" fill="#FF6433"/>
<path d="M13.5 23.1111C7.65 23.1111 3 18.6333 3 13C3 7.36667 7.65 2.88889 13.5 2.88889C15.3 2.88889 17.1 3.32222 18.75 4.18889L20.25 1.73333C18.15 0.577778 15.9 0 13.5 0C6 0 0 5.77778 0 13C0 20.2222 6 26 13.5 26C21 26 27 20.2222 27 13H24C24 18.6333 19.35 23.1111 13.5 23.1111Z" fill="#FF6433"/>
</svg>
