<svg width="302" height="33" viewBox="0 0 302 33" fill="none" xmlns="http://www.w3.org/2000/svg">
<path d="M301.394 4.92188V6.75071H294.141V26H292.095V6.75071H284.842V4.92188H301.394Z" fill="white"/>
<path d="M279.776 4.92188H281.698V26H280.086L267.098 8.36257V26H265.146V4.92188H267.005L279.776 22.2803V4.92188Z" fill="white"/>
<path d="M261.452 6.75071H247.968V14.407H259.902V16.2359H247.968V24.1712H261.452V26H245.953V4.92188H261.452V6.75071Z" fill="white"/>
<path d="M233.244 14.407H241.799V26H240.218L240.063 22.8693L236.932 26H228.718L224.688 21.9704V8.95152L228.718 4.92188H237.769L241.272 8.42456L239.939 9.78844L236.901 6.75071H229.586L226.703 9.63346V21.2884L229.586 24.1712H236.25L239.753 20.6995V16.2359H233.244V14.407Z" fill="white"/>
<path d="M220.229 26L217.842 20.2965H207.055L204.669 26H202.592L211.519 4.92188H213.441L222.399 26H220.229ZM207.83 18.4677H217.068L212.449 7.43265L207.83 18.4677Z" fill="white"/>
<path d="M197.86 13.6321L201.083 16.8558V22.4663L197.55 26H185.988L182.671 22.6833L185.833 19.5216L188.219 21.9084H195.256L196.434 20.7305V18.5607L195.566 17.6927L186.453 17.1348L183.229 13.9111V8.45556L186.763 4.92188H197.581L200.773 8.11459L197.612 11.2763L195.349 9.01351H189.056L187.878 10.1914V12.2062L188.746 13.0742L197.86 13.6321Z" fill="white"/>
<path d="M181.624 26H176.447L172.139 18.1887H167.582V26H162.933V4.92188H177.129L180.601 8.39357V14.686L177.222 18.0957L181.624 26ZM167.582 9.07551V14.0661H174.898L175.951 12.9812V10.0984L174.898 9.07551H167.582Z" fill="white"/>
<path d="M160.028 9.07551H147.753V13.3531H158.478V17.5068H147.753V21.8464H160.028V26H143.104V4.92188H160.028V9.07551Z" fill="white"/>
<path d="M135.767 4.92188L139.921 9.07551V21.8464L135.767 26H121.974V4.92188H135.767ZM135.271 20.1415V10.7804L133.567 9.07551H126.623V21.8464H133.567L135.271 20.1415Z" fill="white"/>
<path d="M114.638 4.92188L118.791 9.07551V21.8464L114.638 26H100.844V4.92188H114.638ZM114.142 20.1415V10.7804L112.437 9.07551H105.493V21.8464H112.437L114.142 20.1415Z" fill="white"/>
<path d="M93.7675 26L92.3106 21.9084H83.8174L82.3605 26H77.5869L85.8322 4.92188H90.5128L98.758 26H93.7675ZM85.3052 17.7547H90.8227L88.064 10.0364L85.3052 17.7547Z" fill="white"/>
<path d="M70.8532 4.92188H75.5028V26H70.8532V17.3828H62.174V26H57.5244V4.92188H62.174V13.2291H70.8532V4.92188Z" fill="white"/>
<path d="M51.6144 13.6321L54.8381 16.8558V22.4663L51.3045 26H39.7425L36.4258 22.6833L39.5875 19.5216L41.9743 21.9084H49.0107L50.1886 20.7305V18.5607L49.3206 17.6927L40.2074 17.1348L36.9837 13.9111V8.45556L40.5174 4.92188H51.3355L54.5282 8.11459L51.3665 11.2763L49.1037 9.01351H42.8112L41.6333 10.1914V12.2062L42.5012 13.0742L51.6144 13.6321Z" fill="white"/>
<path d="M16.2137 17.6857H11.7551C8.76084 17.6857 6.32293 15.2493 6.32293 12.2535C6.32293 9.25772 8.75928 6.82293 11.7551 6.82293H12.2427V3.70679H14.6743V6.82293H16.2137C17.9593 6.82293 19.3751 5.40707 19.3751 3.66147C19.3751 1.91586 17.9593 0.5 16.2137 0.5H11.7551C5.27276 0.5 0 5.77276 0 12.2551C0 18.7374 5.27276 24.0102 11.7551 24.0102H16.2137C17.9593 24.0102 19.3751 22.5943 19.3751 20.8487C19.3751 19.1031 17.9608 17.6873 16.2137 17.6873V17.6857Z" fill="white"/>
<path d="M16.245 9.09363H11.7865C10.0409 9.09363 8.625 10.5095 8.625 12.2551C8.625 14.0007 10.0409 15.4166 11.7865 15.4166H16.245C19.2393 15.4166 21.6772 17.8529 21.6772 20.8472C21.6772 23.8414 19.2408 26.2793 16.245 26.2793H14.676V29.397H12.2444V26.2793H11.7865C10.0409 26.2793 8.625 27.6952 8.625 29.4408C8.625 31.1864 10.0409 32.6023 11.7865 32.6023H16.245C22.7274 32.6023 28.0001 27.3295 28.0001 20.8472C28.0001 14.3648 22.7274 9.09207 16.245 9.09207V9.09363Z" fill="white"/>
</svg>
